PathFileType	4	(X/Y/Z)	s09c0001.trc
DataRate	CameraRate	NumFrames	NumMarkers	Units	OrigDataRate	OrigDataStartFrame	OrigNumFrames
200	200	4	49	mm	200	750	2000
Frame#	Time	racr			lacr			c7			jug			rlel			rdr			llel			ldr			s2			lic			ric			lasi			rasi			rpsi			lpsi			rgt			lgt			rth1			rth2			rth3			rth4			rlfc			rmfc			rsh1			rsh2			rsh3			rsh4			rlmal			rmmal			rcal			rtoe			rmt5			rmt1			lth1			lth2			lth4			lth3			llfc			lmfc			llmal			lmmal			lcal			lmt1			lmt5			lsh1			lsh2			lsh3			lsh4			ltoe			
		X1	Y1	Z1	X2	Y2	Z2	X3	Y3	Z3	X4	Y4	Z4	X5	Y5	Z5	X6	Y6	Z6	X7	Y7	Z7	X8	Y8	Z8	X9	Y9	Z9	X10	Y10	Z10	X11	Y11	Z11	X12	Y12	Z12	X13	Y13	Z13	X14	Y14	Z14	X15	Y15	Z15	X16	Y16	Z16	X17	Y17	Z17	X18	Y18	Z18	X19	Y19	Z19	X20	Y20	Z20	X21	Y21	Z21	X22	Y22	Z22	X23	Y23	Z23	X24	Y24	Z24	X25	Y25	Z25	X26	Y26	Z26	X27	Y27	Z27	X28	Y28	Z28	X29	Y29	Z29	X30	Y30	Z30	X31	Y31	Z31	X32	Y32	Z32	X33	Y33	Z33	X34	Y34	Z34	X35	Y35	Z35	X36	Y36	Z36	X37	Y37	Z37	X38	Y38	Z38	X39	Y39	Z39	X40	Y40	Z40	X41	Y41	Z41	X42	Y42	Z42	X43	Y43	Z43	X44	Y44	Z44	X45	Y45	Z45	X46	Y46	Z46	X47	Y47	Z47	X48	Y48	Z48	X49	Y49	Z49	
750	3.7500	284.510895	1353.399292	382.454834	286.886139	1337.493652	-10.682667	232.516830	1402.847656	182.870941	356.739105	1351.880737	181.824524	298.316833	1092.823608	448.496399	362.366455	878.724548	578.342407	275.287506	1053.395874	-46.936661	399.857758	898.205872	-195.168091	217.260361	943.921814	189.206711	353.755493	991.339966	48.697823	341.417633	1002.868835	337.871735	411.125488	955.121155	80.104080	401.055786	965.963379	319.147400	226.363205	979.202026	244.454208	226.881454	975.433899	133.661667	326.456116	846.913086	386.210449	331.305878	837.059570	10.522305	349.371216	716.197876	382.075439	364.834656	630.784607	368.489624	332.792938	548.360413	358.951080	395.433655	629.283203	348.702484	319.191895	450.994537	335.172729	301.892242	431.049866	237.127533	278.335144	361.184265	368.303802	302.390228	274.057037	359.819427	279.325500	189.321503	361.376160	328.037689	276.917480	329.795654	276.776337	86.710182	360.352386	286.133789	93.540756	283.867340	219.181824	32.050919	318.050507	471.897614	86.204620	354.465454	388.217133	49.226658	407.132172	401.007935	39.252125	297.143219	341.311310	710.712646	9.419480	356.063385	629.365845	26.000395	391.705078	627.217957	39.827023	327.558350	543.728821	35.001568	309.581970	449.090881	47.337971	318.275085	429.048523	140.259491	268.657166	85.029533	21.838417	291.198730	96.166344	92.532516	218.701614	26.727547	68.118431	406.306580	43.957951	87.242767	381.435516	33.806725	-18.423716	278.515106	355.225342	17.658459	296.271698	270.397827	21.455225	274.600342	198.422867	14.864173	323.341278	270.747864	50.498394	472.682007	79.278885	36.664230	
751	3.7550	284.526978	1353.405640	382.449463	286.897614	1337.503174	-10.696692	232.506577	1402.855469	182.872543	356.760864	1351.887207	181.815201	298.301605	1092.834229	448.509979	362.357880	878.722168	578.343140	275.281555	1053.410400	-46.933006	399.850037	898.210022	-195.161377	217.233810	943.940796	189.209351	353.756775	991.346619	48.708458	341.414032	1002.870728	337.870911	411.117157	955.125854	80.131134	401.039276	965.955688	319.149567	226.341919	979.223328	244.462646	226.858765	975.433105	133.674026	326.440948	846.922607	386.215851	331.312195	837.054749	10.520174	349.364532	716.214478	382.077728	364.820343	630.796326	368.498016	332.778961	548.344055	358.968903	395.410919	629.285889	348.720764	319.194000	451.004761	335.169495	301.890625	431.052551	237.132645	278.337433	361.181793	368.321228	302.387695	274.082031	359.841583	279.321014	189.304382	361.383972	327.999481	276.893250	329.794250	276.794189	86.693619	360.355621	286.144867	93.544800	283.868134	219.179367	32.053997	318.046021	471.907532	86.211823	354.465393	388.207703	49.221424	407.116699	401.020264	39.243736	297.139374	341.295868	710.697205	9.427334	356.022186	629.377563	25.984955	391.686615	627.221558	39.837959	327.532318	543.738770	34.999432	309.543518	449.080475	47.333767	318.278992	429.037170	140.262054	268.662628	85.006195	21.832729	291.227478	96.177185	92.530731	218.712952	26.717056	68.112465	406.309052	43.944000	87.234604	381.435608	33.807190	-18.425177	278.490234	355.222626	17.666727	296.301697	270.412659	21.467239	274.661743	198.415894	14.820436	323.333710	270.735992	50.512775	472.696106	79.266907	36.671070	
752	3.7600	284.540924	1353.420898	382.456970	286.903442	1337.504150	-10.694760	232.532425	1402.861694	182.876205	356.769257	1351.895508	181.826736	298.316498	1092.854248	448.530609	362.352783	878.737610	578.360474	275.293518	1053.405884	-46.940994	399.862183	898.200989	-195.158829	217.208252	943.968384	189.230988	353.727112	991.347595	48.713203	341.392395	1002.876465	337.888336	411.127136	955.117798	80.146431	401.041260	965.965942	319.166840	226.340469	979.211853	244.472122	226.836014	975.424011	133.685303	326.452393	846.918945	386.225403	331.133240	836.955017	11.073031	349.365875	716.210266	382.082428	364.817657	630.798096	368.505280	332.783081	548.347717	358.959320	395.430084	629.294922	348.723083	319.190979	451.014893	335.172638	301.891815	431.060425	237.139847	278.330231	361.188568	368.309357	302.383881	274.080933	359.852814	279.312622	189.315277	361.389069	328.010468	276.889954	329.793579	276.777405	86.704491	360.354767	286.164886	93.536171	283.885010	219.181625	32.061054	318.046326	471.979706	86.018509	354.351105	388.173309	49.228645	407.106567	400.995544	39.260464	297.147125	341.284454	710.705627	9.435652	356.030853	629.369385	26.008677	391.670990	627.221008	39.839958	327.513947	543.723328	35.005630	309.543182	449.088226	47.338444	318.257751	429.048889	140.269150	268.653137	85.016891	21.843914	291.223969	96.166405	92.531548	218.714325	26.724279	68.110977	406.303802	43.943172	87.244270	381.435608	33.807190	-18.425175	278.475983	355.227753	17.679045	296.319885	270.436554	21.445538	274.805969	198.384460	14.536765	323.257385	270.570465	50.765041	472.670044	79.270172	36.664135	
753	3.7650	284.555328	1353.427490	382.463623	286.916077	1337.511963	-10.698992	232.552994	1402.865601	182.830780	356.801453	1351.902954	181.817810	298.308685	1092.863159	448.531189	362.349609	878.749451	578.378784	275.296326	1053.412842	-46.943451	399.859253	898.196411	-195.156570	217.029694	943.912903	189.053146	353.721497	991.351624	48.710239	341.386810	1002.888916	337.893646	411.112061	955.117371	80.128670	401.033173	965.970459	319.164154	226.347351	979.219116	244.472488	226.843201	975.424744	133.689224	326.434448	846.919250	386.232513	331.112305	836.972046	11.098435	349.354126	716.191101	382.090210	364.819641	630.798218	368.498169	332.795227	548.337219	358.971710	395.422974	629.283752	348.734436	319.186188	451.008453	335.177795	301.880371	431.059418	237.140884	278.341644	361.190735	368.324188	302.397583	274.071320	359.844299	279.312897	189.304626	361.382141	328.059906	276.903229	329.820435	276.791046	86.702461	360.361511	286.148773	93.538574	283.874664	219.183578	32.044067	318.057068	471.977142	86.020676	354.356506	388.192169	49.213810	407.100769	401.010040	39.250259	297.144135	341.262482	710.701111	9.442384	356.020752	629.362305	26.028053	391.663483	627.224426	39.864151	327.504395	543.704529	35.030758	309.542908	449.088837	47.338444	318.241638	429.040344	140.266052	268.653229	85.016792	21.840469	291.227570	96.164871	92.541214	218.699951	26.738379	68.120949	406.315399	43.942753	87.234024	381.458221	33.820618	-18.427486	278.469177	355.211334	17.667374	296.304108	270.408600	21.457369	274.702118	198.405914	14.781435	323.319580	270.739807	50.534657	472.678009	79.247086	36.666584	
